# xmcd CD database file generated by LOLA_Freedb v0.9beta0
# 
# Track frame offsets:
#      150
#      13757
#      33217
# 
# Disc length: 677 seconds
# 
# Revision: 0 
# Processed by: cddbd v1.5.2PL0 Copyright (c) Steve Scherf et al.
# Submitted via: LOLA_Freedb v0.9beta0
# 
DISCID=1802a303
DTITLE=Dirk Busch - Why Don't You Honk My Tonky
DYEAR=1999
DGENRE=
TTITLE0=Dirk Busch - Why Don't You Honk My Tonky
TTITLE1=Dirk Busch - A Girl Like You
TTITLE2=Dirk Busch - It Has To Be You
EXTD=
EXTT0=
EXTT1=
EXTT2=
PLAYORDER=
